<svg height="512pt" viewBox="-51 0 512 512" width="512pt" xmlns="http://www.w3.org/2000/svg"><path d="m190.125 109.941406v402.058594h30v-402.058594c23.617188-6.574218 41-28.257812 41-53.941406 0-30.878906-25.121094-56-56-56s-56 25.121094-56 56c0 25.683594 17.386719 47.367188 41 53.941406zm15-79.941406c14.335938 0 26 11.664062 26 26s-11.664062 26-26 26-26-11.664062-26-26 11.664062-26 26-26zm0 0"/><path d="m354.25 46.691406c-30.878906 0-56 25.121094-56 56 0 21.472656 12.15625 40.152344 29.945312 49.546875l-76.117187 359.761719h30.664063l74.773437-353.410156c29.363281-1.699219 52.734375-26.117188 52.734375-55.898438 0-30.878906-25.121094-56-56-56zm0 82c-14.335938 0-26-11.664062-26-26 0-14.335937 11.664062-26 26-26s26 11.664063 26 26c0 14.335938-11.660156 26-26 26zm0 0"/><path d="m158.171875 512-76.117187-359.761719c17.789062-9.390625 29.945312-28.074219 29.945312-49.546875 0-30.878906-25.121094-56-56-56s-56 25.121094-56 56c0 29.78125 23.371094 54.199219 52.734375 55.898438l74.773437 353.410156zm-102.171875-383.308594c-14.335938 0-26-11.664062-26-26 0-14.335937 11.664062-26 26-26s26 11.664063 26 26c0 14.335938-11.664062 26-26 26zm0 0"/></svg>