<svg id="Layer_1_1_" enable-background="new 0 0 64 64" height="512" viewBox="0 0 64 64" width="512" xmlns="http://www.w3.org/2000/svg"><path d="m45.01221 7.73438c-1.92822-.18896-4.11328-.40283-4.56494-.62891-1.08643-.54297-1.44434-3.00147-1.44727-4.10693-.00146-.55127-.44873-.99854-1-.99854h-12c-.55225 0-1 .44775-1 1 0 1.10352-.35352 3.55908-1.44727 4.10547-.45166.22607-2.63672.43994-4.56494.62891-5.82812.57128-13.80957 1.35302-15.84521 4.75097-3.0542 5.09033-.50879 24.87354-.146 27.55859l-.9956 20.9087c-.0127.27295.08643.53955.27539.7373.18847.19824.45019.31006.72363.31006h7c.5 0 .92334-.36963.99072-.86475.26038-1.909 2.22986-16.39301 2.83362-22.04694.49091 2.38477.93677 4.35754 1.22693 5.22809.77832 2.33399.94873 12.83448.94873 16.6836 0 .55225.44775 1 1 1h30c.55225 0 1-.44775 1-1 0-3.84863.17041-14.34912.94873-16.68359.29016-.87054.73602-2.84332 1.22693-5.22809.60376 5.65393 2.57324 20.13794 2.83362 22.04694.06738.49511.49072.86474.99072.86474h7c.27344 0 .53516-.11182.72363-.31006.18896-.19775.28809-.46436.27539-.7373l-.99561-20.90869c.36279-2.68506 2.9082-22.46826-.14551-27.55762-2.03612-3.39893-10.01757-4.18067-15.84569-4.75195zm14.93896 52.26562h-5.07812c-.90039-6.63574-2.87305-21.48486-2.87305-23 0-.98468-.21411-3.35004-.40039-5.22131.73529-3.92822 1.33093-7.29712 1.38525-7.60486l-1.96973-.34766c-.02979.16943-2.99854 16.96143-3.96387 19.85742-.89696 2.69141-1.02929 12.88672-1.04833 16.31641h-28.00586c-.01904-3.42969-.15137-13.625-1.04834-16.31641-.96533-2.896-3.93408-19.68799-3.96387-19.85742l-1.96973.34766c.05432.30774.64996 3.67664 1.38525 7.60486-.18627 1.87127-.40038 4.23663-.40038 5.22131 0 1.51514-1.97266 16.36426-2.87305 23h-5.07812l.9502-19.95264c.00293-.06104 0-.12207-.0083-.18262-.8208-6.02246-2.44531-22.49707-.13281-26.35107 1.51807-2.53418 9.53516-3.31934 14.3252-3.78906 2.94482-.28809 4.51611-.45654 5.26416-.83008 1.83739-.91894 2.3535-3.45117 2.49754-4.89453h10.11035c.14404 1.44336.66016 3.97559 2.49756 4.89453.74805.37354 2.31934.54199 5.26416.83008 4.79004.46973 12.80713 1.25488 14.32568 3.79004 2.31201 3.85303.6875 20.32764-.1333 26.3501-.0083.06055-.01123.12158-.0083.18262z"/><path d="m32 10c-3.85986 0-7 2.46729-7 5.5s3.14014 5.5 7 5.5 7-2.46729 7-5.5-3.14014-5.5-7-5.5zm0 9c-2.71045 0-5-1.60303-5-3.5s2.28955-3.5 5-3.5 5 1.60303 5 3.5-2.28955 3.5-5 3.5z"/><path d="m32 25c-3.30859 0-6 2.24316-6 5s2.69141 5 6 5 6-2.24316 6-5-2.69141-5-6-5zm0 8c-2.20557 0-4-1.3457-4-3s1.79443-3 4-3 4 1.3457 4 3-1.79443 3-4 3z"/><path d="m32 38c-2.75684 0-5 1.79443-5 4s2.24316 4 5 4 5-1.79443 5-4-2.24316-4-5-4zm0 6c-1.62598 0-3-.91602-3-2s1.37402-2 3-2 3 .91602 3 2-1.37402 2-3 2z"/><path d="m32 49c-2.75684 0-5 1.79443-5 4s2.24316 4 5 4 5-1.79443 5-4-2.24316-4-5-4zm0 6c-1.62598 0-3-.91602-3-2s1.37402-2 3-2 3 .91602 3 2-1.37402 2-3 2z"/></svg>