<svg xmlns="http://www.w3.org/2000/svg" height="62pt" version="1.1" viewBox="-8 0 62 62.174001" width="62pt">
<g id="surface1">
<path d="M 23.230469 61.257812 C 25.238281 61.859375 27.320312 62.167969 29.417969 62.175781 C 33.585938 62.183594 37.683594 61.042969 41.242188 58.871094 L 41.328125 58.796875 L 41.457031 58.6875 L 41.5625 58.535156 L 41.625 58.449219 C 41.695312 58.320312 41.742188 58.1875 41.761719 58.039062 C 41.761719 58.039062 41.761719 57.980469 41.761719 57.941406 C 41.765625 57.890625 41.765625 57.835938 41.761719 57.78125 C 41.617188 53.480469 40.449219 49.273438 38.363281 45.511719 C 43.457031 40.378906 45.984375 34.550781 45.785156 28.191406 C 45.386719 13.347656 30.941406 0.828125 30.269531 0.300781 C 29.753906 -0.148438 28.972656 -0.0898438 28.527344 0.429688 C 28.472656 0.496094 28.417969 0.566406 28.378906 0.644531 C 21.007812 14.152344 18.976562 25.457031 22.382812 34.242188 C 15.394531 32.671875 8.167969 32.492188 1.117188 33.722656 C 0.441406 33.839844 -0.0117188 34.476562 0.105469 35.152344 C 0.125 35.265625 0.164062 35.375 0.210938 35.476562 C 6.285156 49.828125 14.03125 58.527344 23.230469 61.257812 Z M 29.8125 3.191406 C 33.203125 6.445312 43.011719 16.800781 43.320312 28.230469 C 43.472656 33.773438 41.304688 38.855469 36.964844 43.394531 L 36.777344 43.136719 L 35.875 36.949219 L 40.242188 31.101562 C 40.65625 30.550781 40.542969 29.78125 39.996094 29.367188 C 39.449219 28.960938 38.671875 29.066406 38.265625 29.613281 L 35.378906 33.484375 L 34.652344 28.4375 L 38.992188 22.617188 C 39.402344 22.066406 39.292969 21.292969 38.746094 20.882812 C 38.203125 20.472656 37.425781 20.578125 37.015625 21.128906 L 37.011719 21.128906 L 34.140625 24.976562 L 32.421875 13.136719 C 32.324219 12.453125 31.6875 11.984375 31.007812 12.078125 C 30.324219 12.179688 29.851562 12.8125 29.949219 13.496094 L 31.660156 25.199219 L 28.132812 22.367188 C 27.582031 21.945312 26.796875 22.042969 26.375 22.589844 C 25.953125 23.136719 26.046875 23.921875 26.597656 24.34375 L 32.1875 28.773438 L 32.90625 33.722656 L 29.394531 30.941406 C 28.855469 30.511719 28.078125 30.605469 27.65625 31.144531 C 27.234375 31.679688 27.320312 32.457031 27.859375 32.878906 L 33.425781 37.285156 L 33.820312 40.019531 C 33.515625 39.746094 33.214844 39.460938 32.894531 39.203125 C 30.648438 37.484375 28.140625 36.132812 25.46875 35.207031 C 21.453125 27.175781 22.902344 16.417969 29.8125 3.191406 Z M 31.347656 41.171875 C 35.652344 44.523438 38.210938 49.371094 39.019531 55.566406 L 33.242188 52.203125 L 31.371094 45.140625 C 31.160156 44.492188 30.460938 44.136719 29.808594 44.351562 C 29.214844 44.550781 28.859375 45.160156 28.988281 45.769531 L 30.222656 50.433594 L 25.84375 47.847656 L 23.988281 40.820312 C 23.851562 40.152344 23.203125 39.71875 22.53125 39.847656 C 21.863281 39.984375 21.429688 40.636719 21.558594 41.304688 C 21.570312 41.355469 21.585938 41.402344 21.597656 41.453125 L 22.839844 46.089844 L 12.507812 40.066406 C 11.902344 39.753906 11.15625 39.984375 10.839844 40.585938 C 10.539062 41.160156 10.726562 41.863281 11.273438 42.207031 L 21.453125 48.171875 L 17.0625 49.195312 C 16.378906 49.273438 15.886719 49.894531 15.964844 50.574219 C 16.042969 51.257812 16.664062 51.75 17.34375 51.671875 L 17.628906 51.671875 L 24.566406 50.050781 L 28.851562 52.523438 L 24.496094 53.539062 C 23.8125 53.613281 23.320312 54.230469 23.402344 54.917969 C 23.480469 55.601562 24.097656 56.09375 24.78125 56.011719 L 25.0625 56.011719 L 31.980469 54.402344 L 37.988281 57.742188 C 33.59375 59.808594 28.597656 60.222656 23.925781 58.894531 C 15.773438 56.417969 8.769531 48.75 3.105469 35.949219 C 7.84375 35.308594 22.269531 34.054688 31.347656 41.171875 Z M 31.347656 41.171875 " style=" stroke:none;fill-rule:nonzero;fill:rgb(0%,0%,0%);fill-opacity:1;" />
</g>
</svg>