<svg height="512pt" viewBox="0 0 512 512" width="512pt" xmlns="http://www.w3.org/2000/svg"><path d="m302 241c0 16.542969-13.457031 30-30 30h-15v30h15c33.085938 0 60-26.914062 60-60s-26.914062-60-60-60v-15c0-41.90625 33.644531-76 75-76s75 34.09375 75 76v37.851562c0 7.519532-3.742188 14.511719-9.996094 18.6875-3.640625 3.535157-71.632812 37.117188-85.921875 122.78125-1.515625 9.085938-9.300781 15.679688-18.515625 15.679688h-35.566406v30h35.566406c23.9375 0 44.167969-17.136719 48.105469-40.746094 11.949219-71.652344 69.050781-98.980468 72.972656-102.753906 14.625-9.765625 23.355469-26.082031 23.355469-43.648438v-37.851562c0-58.449219-47.105469-106-105-106-57.898438 0-105 47.550781-105 106v45h30c16.542969 0 30 13.457031 30 30zm0 0"/><path d="m45 422c-24.8125 0-45 20.1875-45 45s20.1875 45 45 45c23.847656 0 43.410156-18.648438 44.898438-42.125l100.566406-28.160156c16.867187 41.207031 57.121094 70.285156 103.984375 70.285156 54.847656 0 101.867187-39.652344 110.925781-94.003906l9.480469-57.886719c7.253906-43.523437 42.695312-58.628906 47.070312-62.699219 31.355469-20.902344 50.074219-55.878906 50.074219-93.5625v-37.847656c0-91.53125-74.019531-166-165-166-68.515625 0-127.40625 42.238281-152.3125 102.1875l-105.03125-51.714844c.21875-1.796875.34375-3.621094.34375-5.472656 0-24.8125-20.1875-45-45-45s-45 20.1875-45 45 20.1875 45 45 45c12.140625 0 23.164062-4.839844 31.265625-12.679688l109.398437 53.863282c-2.394531 11.230468-3.664062 22.875-3.664062 34.816406v90h-92c0-24.8125-20.1875-45-45-45s-45 20.1875-45 45 20.1875 45 45 45c13.296875 0 25.261719-5.800781 33.503906-15h103.496094v112.550781c0 4.789063.300781 9.503907.871094 14.136719l-101.167969 28.328125c-8.160156-11.496094-21.566406-19.015625-36.703125-19.015625zm0-362c-8.269531 0-15-6.730469-15-15s6.730469-15 15-15 15 6.730469 15 15-6.730469 15-15 15zm0 211c-8.269531 0-15-6.730469-15-15s6.730469-15 15-15 15 6.730469 15 15-6.730469 15-15 15zm167-105c0-74.992188 60.5625-136 135-136s135 61.007812 135 136v37.847656c0 27.628906-13.726562 53.273438-36.714844 68.601563-4.039062 3.839843-50.417968 25.097656-60.027344 82.769531l-9.480468 57.886719c-6.65625 39.921875-40.859375 68.894531-81.328125 68.894531-45.464844 0-82.449219-37.433594-82.449219-83.449219zm-167 316c-8.269531 0-15-6.730469-15-15s6.730469-15 15-15 15 6.730469 15 15-6.730469 15-15 15zm0 0"/></svg>